<?xml version="1.0" standalone="no"?>
<!DOCTYPE svg PUBLIC "-//W3C//DTD SVG 20010904//EN"
        "http://www.w3.org/TR/2001/REC-SVG-20010904/DTD/svg10.dtd">
<svg version="1.0" xmlns="http://www.w3.org/2000/svg"
     width="180"
     height="180"
     viewBox="0 0 300.000000 300.000000"
     preserveAspectRatio="xMidYMid meet">
    <metadata>
        Created by potrace 1.10, written by Peter Selinger 2001-2011
    </metadata>
    <g transform="translate(0.000000,300.000000) scale(0.100000,-0.100000)"
       fill="#1f96a5" stroke="none">
        <path d="M431 2820 c-19 -11 -9 -45 14 -45 13 0 21 8 23 21 3 23 -17 37 -37 24z"/>
        <path d="M290 2720 c-24 -24 -26 -76 -5 -107 30 -43 109 -37 135 11 16 31 5 82 -23 101 -31 21 -83 19 -107 -5z m108 -18 c18 -24 15 -70 -7 -81 -10 -6 -21 -8 -24 -4 -4 3 -13 0 -21 -6 -12 -10 -19 -8 -36 9 -17 17 -20 28 -14 53 3 18 11 38 17 45 13 16 67 6 85 -16z"/>
        <path d="M737 2618 c-79 -10 -135 -43 -174 -101 -54 -81 -55 -152 -3 -186 23 -15 24 -15 16 4 -19 47 -18 92 2 131 29 57 74 95 129 109 114 30 222 -17 274 -117 27 -53 24 -65 -18 -78 -44 -14 -73 -36 -33 -25 21 5 20 3 -7 -14 -18 -11 -33 -23 -33 -27 0 -3 16 4 36 17 24 14 53 22 85 23 49 1 49 1 43 31 -35 160 -163 254 -317 233z"/>
        <path d="M286 2485 c-8 -22 4 -45 24 -45 28 0 45 27 30 45 -7 8 -20 15 -30 15 -10 0 -20 -7 -24 -15z"/>
        <path d="M1440 2449 c-106 -27 -210 -80 -258 -133 -30 -32 -50 -46 -76 -49 l-36 -5 0 40 0 41 -42 -7 c-24 -4 -47 -12 -53 -17 -9 -9 -10 -477 -1 -486 2 -2 30 -8 62 -13 86 -14 172 -61 253 -138 56 -53 76 -66 93 -61 21 5 23 10 19 69 -3 58 -2 62 15 55 11 -4 27 -10 37 -12 9 -3 17 -12 17 -19 0 -8 10 -14 24 -14 19 0 33 -13 62 -62 21 -35 45 -67 53 -72 9 -5 35 -29 59 -52 29 -30 53 -45 80 -49 20 -3 50 -8 65 -10 16 -3 48 -22 71 -42 42 -37 122 -73 161 -73 39 0 95 21 125 47 42 35 62 77 62 132 1 36 9 58 39 105 22 32 42 69 45 82 3 13 7 24 9 24 18 0 169 -58 234 -89 95 -46 103 -47 121 -26 11 13 8 24 -17 64 -17 26 -38 71 -47 99 -22 65 -64 123 -111 152 -20 12 -37 21 -39 19 -84 -119 -99 -135 -116 -124 -8 5 -8 11 1 21 6 8 7 14 2 14 -12 0 -53 -85 -53 -110 0 -37 -17 -21 -24 22 -16 99 -96 193 -211 247 -76 36 -153 51 -264 51 -154 0 -263 -38 -360 -126 -50 -45 -52 -49 -35 -61 11 -8 18 -17 17 -21 -2 -12 11 -27 40 -41 19 -10 27 -21 25 -35 -3 -18 -9 -21 -44 -18 -48 3 -68 -15 -70 -60 -3 -53 -18 -52 -76 4 -30 29 -68 64 -84 78 -25 21 -26 22 -10 3 23 -28 13 -30 -23 -4 -14 11 -51 27 -81 37 -30 9 -60 21 -66 25 -6 5 -13 7 -16 4 -3 -3 -11 2 -19 11 -21 26 -19 200 4 241 23 44 21 55 -3 16 -11 -18 -22 -33 -24 -33 -12 0 8 177 22 199 l15 25 19 -24 c14 -17 18 -33 14 -55 -5 -29 -5 -29 10 -10 16 20 16 19 11 -5 -5 -22 -5 -23 7 -8 7 10 16 15 19 11 4 -3 7 -1 7 6 0 8 8 11 20 8 11 -3 30 3 44 14 13 10 29 19 34 19 6 0 20 15 31 34 15 24 40 42 92 65 131 59 248 77 393 61 38 -4 82 -4 98 0 27 8 41 -3 16 -13 -7 -3 -3 -6 10 -6 12 -1 25 0 28 2 4 1 11 -9 16 -23 7 -19 11 -21 17 -11 7 11 11 9 20 -8 7 -11 17 -21 24 -21 24 0 78 -60 102 -112 29 -63 33 -133 8 -160 -23 -26 -9 -34 23 -13 25 16 26 20 20 77 -11 111 -69 210 -146 252 -27 15 -53 34 -58 42 -14 25 -77 34 -232 33 -110 0 -163 -5 -220 -20z m528 -408 c18 -5 58 -25 90 -44 31 -19 72 -40 89 -47 39 -15 86 -83 110 -156 17 -55 12 -97 -9 -76 -7 7 -34 12 -60 12 -35 0 -59 7 -87 26 -22 14 -66 36 -98 49 -46 19 -67 34 -102 80 -49 63 -131 129 -175 139 -30 7 -26 20 9 29 30 7 196 -2 233 -12z m-232 -55 c33 -15 72 -47 115 -95 35 -39 71 -71 79 -71 22 0 155 -65 194 -95 19 -14 46 -25 64 -25 17 0 37 -3 46 -6 18 -7 21 -49 6 -90 l-10 -26 -23 43 c-18 35 -36 50 -83 74 -32 17 -103 55 -158 84 -75 40 -118 56 -180 67 -125 22 -196 18 -196 -11 0 -7 -7 -18 -15 -25 -11 -9 -15 -9 -15 -1 0 7 -4 10 -10 6 -13 -8 -31 -78 -22 -85 8 -6 14 -30 8 -30 -17 0 -36 15 -36 29 0 31 34 112 45 107 7 -2 17 -1 24 3 8 5 2 12 -19 21 -26 11 -33 11 -40 0 -8 -14 -80 -6 -80 9 0 4 14 27 31 50 61 84 177 113 275 67z m769 -117 c38 -34 65 -77 65 -104 0 -9 -4 -13 -10 -10 -5 3 -10 1 -10 -4 0 -11 11 -14 40 -12 11 0 12 -1 2 -5 -10 -5 -7 -14 13 -34 15 -16 24 -33 21 -39 -10 -16 -116 39 -116 60 0 9 -9 28 -21 43 -22 28 -19 32 12 16 37 -21 18 -2 -31 30 -54 35 -59 44 -33 72 22 24 26 23 68 -13z m-869 -74 c-25 -25 -37 -47 -41 -80 -11 -69 -29 -70 -22 -2 4 40 2 57 -6 58 -7 0 -6 3 2 6 8 3 30 16 49 29 50 34 58 29 18 -11z m220 -6 c137 -42 281 -134 321 -204 37 -64 18 -155 -38 -186 -16 -8 -13 0 15 36 57 76 42 76 -26 2 -59 -66 -62 -68 -97 -62 -49 9 -84 29 -113 63 -32 38 -59 52 -100 52 -42 1 -105 29 -150 69 -61 54 -73 146 -26 206 39 50 105 58 214 24z m559 2 c22 -10 48 -28 58 -39 21 -23 14 -45 -11 -38 -125 35 -132 37 -132 54 0 20 18 42 35 42 5 0 28 -9 50 -19z"/>
        <path d="M1682 1763 c-17 -15 -33 -39 -37 -53 -4 -20 -2 -18 13 9 33 60 86 76 123 39 l23 -23 -16 25 c-23 37 -69 38 -106 3z"/>
        <path d="M1774 1718 c-5 -7 -7 -22 -5 -32 2 -13 -2 -17 -13 -13 -20 8 -33 -71 -17 -102 14 -25 19 -26 50 -2 26 20 40 78 31 126 -5 32 -33 45 -46 23z m26 -87 c0 -5 -8 -17 -17 -27 -17 -17 -18 -17 -21 1 -2 9 2 21 10 26 17 11 28 11 28 0z"/>
        <path d="M1975 1588 c-83 -49 -80 -46 -72 -54 7 -7 98 48 131 78 29 27 18 22 -59 -24z"/>
        <path d="M2033 1570 c-45 -27 -41 -32 7 -8 32 16 43 18 55 8 8 -7 15 -18 15 -24 0 -6 -4 -5 -9 3 -13 20 -42 6 -34 -15 5 -14 3 -16 -11 -11 -24 9 -51 -54 -36 -83 14 -26 24 -25 54 7 31 33 52 109 35 129 -16 19 -38 17 -76 -6z"/>
        <path d="M669 2340 c-31 -33 -64 -60 -71 -60 -8 0 -25 11 -38 25 -26 27 -60 33 -60 11 0 -8 11 -23 25 -34 24 -19 24 -20 5 -25 -11 -3 -20 -12 -20 -19 0 -11 15 -14 63 -13 34 0 68 -3 74 -8 9 -6 15 -4 19 7 9 23 0 29 -54 37 l-47 6 43 2 c55 1 76 13 91 49 28 68 98 60 136 -16 l22 -43 17 25 c9 14 13 26 10 26 -4 0 0 8 9 18 19 21 11 38 -9 21 -10 -8 -23 -4 -53 20 -62 49 -92 43 -162 -29z"/>
        <path d="M2049 2315 c50 -58 72 -115 76 -199 3 -77 28 -146 40 -114 4 9 2 25 -4 37 -6 11 -11 43 -11 71 0 54 -1 54 45 13 16 -15 29 -17 20 -3 -3 6 -2 10 4 10 5 0 12 -8 16 -19 3 -10 15 -27 26 -37 18 -16 19 -16 13 -1 -9 24 1 21 49 -11 23 -16 56 -32 72 -37 17 -4 24 -10 17 -12 -10 -4 -8 -9 7 -19 11 -8 18 -21 15 -29 -10 -24 24 -18 37 7 11 20 8 26 -26 55 -21 18 -82 55 -134 81 -53 26 -102 56 -111 67 -26 37 -125 137 -155 158 l-30 21 34 -39z"/>
        <path d="M1677 2275 c-20 -24 -37 -46 -37 -49 0 -13 30 7 35 23 3 10 15 28 26 40 12 12 19 24 17 26 -2 3 -21 -15 -41 -40z"/>
        <path d="M871 2257 c-7 -10 -8 -30 -2 -68 5 -30 12 -124 16 -209 3 -85 8 -156 10 -158 1 -2 16 0 31 5 l29 8 -9 103 c-7 90 -10 101 -22 85 -7 -10 -14 -13 -14 -6 0 6 7 18 15 27 11 11 15 39 15 110 0 84 -2 97 -19 106 -26 13 -36 13 -50 -3z"/>
        <path d="M264 2191 c-92 -42 -174 -151 -174 -231 0 -84 45 -157 119 -195 106 -53 243 -56 539 -11 l152 23 11 -41 c5 -23 17 -58 25 -79 14 -38 14 -38 -8 -32 -13 4 -29 12 -36 18 -7 6 -1 -8 14 -31 16 -24 40 -46 57 -52 60 -21 18 -19 -65 2 -72 19 -88 20 -102 9 -22 -19 -20 -31 7 -31 12 0 63 -9 114 -20 87 -18 93 -21 139 -70 25 -27 51 -50 56 -50 5 0 7 4 4 9 -3 5 -3 23 0 39 l6 30 57 -20 c31 -10 82 -20 114 -22 57 -2 58 -1 35 16 -13 10 -26 18 -30 18 -5 0 -8 11 -8 24 0 28 19 86 28 86 4 0 32 -35 62 -76 97 -133 236 -244 307 -244 13 0 28 -9 35 -20 12 -18 13 -18 25 11 7 16 26 37 43 47 39 22 33 38 -14 34 -47 -4 -67 12 -61 47 3 14 2 19 -1 11 -4 -8 -13 -21 -22 -27 -14 -12 -14 -13 0 -13 21 0 44 -28 32 -40 -5 -5 -35 4 -74 22 -65 31 -140 99 -244 218 -55 64 -51 47 5 -21 21 -25 36 -49 32 -52 -3 -4 -19 13 -36 36 -29 40 -75 83 -87 81 -3 -1 -33 24 -67 55 -75 69 -143 108 -214 121 -29 6 -54 9 -55 7 -7 -6 25 -107 47 -151 12 -25 30 -48 38 -51 22 -7 46 -45 29 -45 -7 -1 -2 -7 11 -14 15 -8 20 -16 12 -20 -6 -4 -17 -4 -23 0 -9 5 -9 2 1 -9 12 -15 11 -17 -2 -17 -9 0 -18 8 -21 18 -3 10 -20 26 -37 36 -17 10 -28 20 -25 24 3 3 -8 13 -24 23 -45 28 -36 54 9 29 17 -8 16 -4 -5 48 -12 31 -26 74 -29 95 -5 26 -12 37 -25 37 -29 0 -50 11 -50 26 0 18 -34 18 -170 -1 -58 -8 -127 -15 -155 -16 l-50 -2 55 -6 c30 -4 59 -3 65 1 5 5 17 8 28 8 16 0 17 -2 4 -15 -27 -26 -258 -44 -341 -26 -46 9 -31 26 23 26 27 0 47 3 44 8 -2 4 -15 7 -28 7 -23 0 -23 1 -10 28 8 15 21 52 29 82 11 40 27 67 57 97 23 24 45 41 48 38 13 -8 44 56 33 67 -7 7 -27 -6 -64 -43 -75 -74 -89 -100 -108 -188 -19 -86 -21 -87 -100 -48 -134 65 -113 235 40 313 47 23 137 21 219 -5 87 -29 111 -28 111 4 0 16 6 25 15 25 20 0 19 -30 -2 -45 -21 -15 -9 -35 22 -35 29 0 45 27 44 72 l-1 33 -7 -30 -7 -30 -7 38 c-9 41 -31 49 -53 20 -8 -11 -13 -13 -14 -5 0 15 -77 17 -82 2 -2 -6 -25 -2 -56 10 -67 25 -153 26 -208 1z m322 -42 c10 -17 -13 -34 -29 -21 -8 7 -17 9 -20 5 -4 -3 -7 1 -7 10 0 19 44 24 56 6z m530 -419 c6 0 23 -11 37 -24 14 -13 28 -22 30 -19 3 2 4 -3 4 -12 -1 -10 14 -26 37 -39 44 -25 63 -59 42 -78 -7 -7 -11 -22 -9 -33 4 -16 3 -17 -6 -5 -9 12 -11 12 -11 1 0 -8 8 -20 17 -27 31 -22 6 -27 -40 -8 -37 15 -42 20 -31 32 22 22 16 49 -22 102 -22 31 -31 50 -22 50 7 1 0 8 -15 16 -15 8 -25 19 -23 23 9 14 -48 -1 -63 -17 -13 -13 -16 -12 -22 4 -14 34 -10 47 11 41 13 -3 20 0 20 8 0 11 5 11 28 -1 15 -7 32 -14 38 -14z m-14 -72 c8 -18 32 -54 52 -80 39 -53 39 -55 -4 -33 -27 14 -56 58 -80 120 -15 39 13 32 32 -7z m113 -184 c55 -23 37 -27 -21 -4 -27 10 -42 19 -33 20 9 0 33 -7 54 -16z m324 -104 c0 -16 -89 78 -89 94 0 5 20 -11 45 -35 25 -24 45 -51 44 -59z m44 -14 c28 -21 21 -39 -8 -20 -14 9 -25 20 -25 25 0 13 12 11 33 -5z m167 -76 c-23 -15 -60 -12 -60 4 0 9 7 12 19 9 10 -3 22 1 26 7 5 9 10 9 19 0 8 -8 7 -13 -4 -20z"/>
        <path d="M625 2055 c35 -94 45 -132 45 -180 0 -30 5 -55 10 -55 30 0 -13 209 -51 244 -9 8 -10 7 -4 -9z"/>
        <path d="M287 1713 c-4 -3 -7 -16 -7 -28 0 -11 -4 -25 -9 -30 -6 -6 -11 -32 -13 -60 -1 -27 -6 -55 -10 -61 -5 -6 -10 -41 -13 -78 -2 -36 -7 -71 -11 -77 -3 -6 -2 -14 4 -18 8 -5 6 -31 -6 -90 l-17 -83 26 -23 c57 -48 299 -87 327 -52 6 7 14 32 18 56 7 42 6 43 -15 30 -11 -8 -21 -23 -21 -35 0 -40 -56 -44 -176 -14 -49 13 -87 29 -100 43 -20 21 -21 27 -11 90 6 37 15 67 19 67 4 0 8 9 8 20 0 11 -4 20 -10 20 -5 0 -10 5 -10 11 0 6 14 1 30 -11 17 -12 30 -19 30 -16 0 3 30 -15 68 -40 80 -55 180 -104 280 -137 40 -14 76 -27 79 -31 4 -3 -3 -16 -15 -29 -30 -32 -79 -142 -93 -206 -34 -167 35 -346 156 -402 30 -14 64 -19 136 -19 53 0 110 -5 128 -11 27 -10 31 -16 31 -47 0 -41 18 -83 38 -90 7 -2 30 14 51 35 30 30 41 51 50 95 7 32 10 62 6 68 -15 25 16 7 39 -22 47 -61 56 -68 81 -68 17 0 29 8 37 25 16 36 -2 64 -101 154 -93 83 -140 132 -158 165 -11 20 -11 20 -15 -4 -2 -14 -4 27 -3 90 l0 115 53 101 c47 90 58 103 97 122 28 14 47 18 51 11 8 -13 1 -20 -49 -44 -36 -17 -48 -32 -86 -107 -37 -73 -46 -99 -49 -155 -4 -65 -3 -67 13 -46 9 13 25 28 36 33 18 10 19 9 13 -15 -14 -56 55 -143 178 -223 132 -85 165 -120 147 -154 -16 -30 -55 -22 -86 19 -35 46 -104 115 -166 167 -26 22 -64 64 -84 94 -21 29 -39 49 -41 43 -8 -25 52 -102 135 -173 49 -42 102 -95 118 -119 16 -24 40 -54 54 -66 l25 -22 36 20 c20 11 42 30 49 41 22 36 -28 92 -164 183 -187 125 -195 149 -119 364 l46 131 48 -98 c75 -152 203 -277 395 -386 l79 -45 19 20 c11 12 27 18 36 16 9 -3 30 -10 47 -15 29 -9 31 -8 27 12 -3 12 -1 17 4 11 4 -6 23 -21 41 -34 21 -15 32 -31 32 -46 0 -30 41 -40 143 -33 125 9 239 63 344 163 27 26 56 45 69 45 65 0 71 37 15 90 -45 43 -158 82 -172 59 -5 -9 -33 -14 -82 -15 -80 -1 -220 -43 -244 -72 -7 -9 -13 -39 -13 -67 0 -51 19 -101 65 -169 l19 -29 -21 14 c-12 7 -32 30 -45 52 -41 69 -52 77 -113 77 -42 0 -55 3 -55 15 0 11 11 15 43 15 47 0 77 22 95 71 l10 26 -48 -5 c-29 -3 -50 0 -54 7 -9 14 -59 14 -73 0 -15 -15 -98 4 -173 39 -109 52 -293 260 -336 380 -9 26 -19 54 -22 62 -3 8 -9 -9 -14 -39 -8 -51 -6 -60 27 -128 103 -219 258 -362 433 -403 32 -7 52 -17 52 -26 0 -17 -2 -17 -65 0 -100 26 -176 74 -271 170 -79 80 -97 105 -148 208 l-58 117 -46 10 c-59 12 -106 -5 -116 -42 -5 -21 -16 -28 -59 -40 -137 -38 -142 -29 -19 36 l87 46 -50 -3 c-53 -4 -240 -77 -214 -84 42 -11 42 -12 14 -42 -17 -18 -39 -30 -54 -30 -24 0 -24 0 -5 -16 19 -15 19 -15 -1 -9 -18 4 -21 1 -20 -22 0 -16 -8 -48 -18 -72 -24 -55 -18 -135 13 -187 l22 -35 -23 -34 c-37 -54 -56 -46 -95 39 -22 49 -26 68 -21 120 5 61 50 176 69 176 14 0 38 27 31 34 -15 15 -34 3 -63 -39 -43 -62 -61 -119 -61 -191 0 -139 101 -261 146 -175 15 30 60 71 78 71 6 0 1 -10 -10 -22 -55 -60 -68 -144 -34 -211 17 -34 18 -38 3 -35 -9 2 -36 32 -60 68 -23 36 -55 79 -71 96 -113 122 -105 299 18 444 26 30 33 33 49 23 17 -10 23 -8 43 13 l22 24 -41 0 c-61 0 -57 10 23 49 6 3 4 -3 -4 -12 -24 -30 -5 -29 50 2 30 16 84 42 121 56 47 19 69 33 74 48 3 12 17 37 31 55 28 37 26 39 -19 14 -71 -40 -103 -45 -221 -33 -61 7 -117 17 -124 23 -21 17 -15 0 9 -24 21 -21 21 -22 2 -29 -14 -5 -9 -7 16 -6 19 0 60 0 90 -1 l55 -2 -55 -31 c-30 -16 -72 -43 -92 -60 l-38 -30 -57 17 c-122 35 -363 168 -363 200 0 7 -7 15 -16 18 -23 9 -24 8 -24 -14 0 -14 -7 -20 -24 -20 -35 0 -39 37 -18 145 l18 90 37 0 c20 0 37 3 37 6 0 11 64 17 105 9 22 -4 32 -8 23 -9 -9 0 -19 -5 -22 -9 -3 -5 36 -10 87 -11 51 -1 135 -11 189 -21 53 -11 99 -20 103 -20 3 0 5 12 3 28 -3 25 -9 28 -73 44 -78 19 -265 41 -286 34 -8 -3 -53 -7 -100 -10 -82 -4 -86 -3 -82 15 4 14 0 19 -14 19 -11 0 -23 -3 -26 -7z m739 -419 c-79 -39 -91 -41 -77 -16 25 46 46 58 97 53 l49 -4 -69 -33z m249 -27 c-22 -15 -55 -28 -55 -22 0 12 35 35 53 35 21 0 21 0 2 -13z m-145 -138 c-64 -99 -84 -161 -85 -260 l0 -86 -40 4 c-149 18 -172 199 -42 337 26 27 43 36 68 37 19 0 52 6 74 14 65 21 66 18 25 -46z m104 -49 c-19 -50 -34 -95 -34 -102 0 -16 -30 -48 -46 -48 -33 0 13 138 73 218 40 54 43 28 7 -68z m381 -95 c58 -52 178 -115 235 -122 36 -5 50 -20 35 -35 -8 -7 -77 17 -150 53 -56 27 -96 59 -154 122 -37 41 -21 32 34 -18z m942 -62 c17 -8 39 -23 49 -34 17 -19 16 -19 -16 -13 -24 5 -31 4 -26 -4 4 -7 1 -12 -8 -12 -19 0 -21 -16 -3 -23 6 -3 2 -6 -9 -6 -12 -1 -27 -8 -35 -17 -28 -34 -140 -105 -195 -124 -68 -24 -106 -19 -128 16 -24 36 -45 126 -35 146 13 25 150 66 214 64 30 -1 51 2 49 6 -3 5 -29 9 -57 10 -47 1 -44 2 23 8 88 8 133 4 177 -17z m-1880 -47 c-7 -19 17 -100 43 -141 11 -17 17 -34 15 -37 -3 -3 9 -18 27 -34 35 -31 68 -76 68 -94 0 -33 -72 17 -111 78 -33 52 -36 67 -14 58 10 -4 7 6 -10 28 -34 44 -48 156 -19 156 3 0 4 -6 1 -14z m1318 -6 c-3 -5 6 -12 20 -16 24 -6 36 -24 15 -24 -16 0 -23 -2 -47 -11 -14 -5 -23 -5 -23 1 0 6 -5 10 -11 10 -7 0 -10 -17 -7 -45 3 -45 -13 -63 -26 -29 -22 58 10 140 39 100 13 -16 14 -16 20 3 3 12 11 21 16 21 6 0 7 -4 4 -10z m207 -209 c7 -9 3 -8 -11 4 -24 21 -61 85 -61 107 0 7 14 -11 30 -41 16 -29 35 -61 42 -70z m-1046 58 c56 -55 70 -119 25 -119 -13 0 -28 14 -42 40 -12 22 -40 52 -61 66 -21 15 -38 32 -38 40 0 34 69 18 116 -27z m709 30 c14 -14 -16 -10 -50 6 l-30 15 35 -6 c19 -3 39 -10 45 -15z m-810 -57 c33 -32 70 -71 82 -86 17 -20 30 -27 50 -24 23 2 29 9 33 38 l6 35 7 -28 c6 -21 3 -34 -13 -54 -11 -14 -20 -36 -20 -48 0 -12 -6 -38 -14 -57 -30 -70 -72 -76 -61 -8 6 33 3 41 -17 54 -13 8 -45 20 -73 26 -27 5 -60 12 -72 15 -44 10 -54 111 -12 132 l24 13 -29 0 -29 0 23 25 c13 14 31 25 39 25 9 0 43 -27 76 -58z m1028 30 c21 -18 22 -32 2 -32 -18 0 -56 40 -49 52 6 9 19 3 47 -20z m-770 -117 c59 -57 81 -126 30 -96 -10 6 -14 11 -8 11 5 0 -10 18 -33 39 -23 22 -42 46 -42 53 0 8 -5 19 -12 26 -9 9 -9 12 3 12 8 0 36 -20 62 -45z"/>
        <path d="M533 1583 c43 -20 77 -42 77 -50 0 -9 -7 -12 -17 -9 -142 41 -267 60 -282 42 -7 -8 10 -12 53 -13 78 -2 177 -27 235 -59 24 -13 45 -23 46 -22 2 2 6 21 9 43 7 38 5 41 -26 57 -49 26 -117 48 -147 47 -19 0 -6 -10 52 -36z"/>
        <path d="M652 1589 c2 -18 11 -25 38 -30 19 -3 45 -9 58 -13 13 -5 22 -3 22 3 0 6 -6 11 -14 11 -9 0 -12 7 -9 20 4 15 0 20 -15 20 -11 0 -34 3 -52 6 -29 6 -31 5 -28 -17z"/>
        <path d="M300 1527 c0 -8 13 -11 43 -9 48 4 136 -10 182 -29 17 -7 34 -13 39 -13 12 -1 32 -34 24 -41 -3 -3 -23 1 -43 10 -95 39 -205 54 -205 27 0 -5 30 -14 66 -21 75 -14 184 -54 199 -75 8 -10 174 -40 182 -32 1 1 0 11 -3 23 -5 17 -17 22 -77 29 -71 9 -72 9 -69 37 3 25 -2 30 -51 53 -99 45 -287 72 -287 41z"/>
        <path d="M1795 1421 c-8 -15 24 -41 51 -41 30 0 31 14 2 34 -25 18 -44 20 -53 7z"/>
        <path d="M1297 1373 c-13 -12 -7 -23 12 -23 10 0 21 7 25 15 5 15 -24 22 -37 8z"/>
        <path d="M580 1338 c0 -13 4 -30 9 -37 8 -12 11 -9 16 11 7 28 1 48 -16 48 -5 0 -9 -10 -9 -22z"/>
        <path d="M1474 1291 c9 -14 110 -59 188 -82 41 -13 82 -32 95 -46 26 -27 38 -28 78 -7 17 9 45 16 64 15 41 -2 103 17 95 30 -3 5 -12 5 -22 0 -10 -5 -37 -12 -62 -15 -25 -3 -60 -9 -78 -12 -22 -4 -40 -1 -60 12 -15 10 -31 19 -37 19 -27 1 -135 40 -187 66 -58 29 -84 36 -74 20z"/>
        <path d="M1860 1291 c15 -4 26 -15 28 -29 4 -26 22 -30 22 -4 0 26 -20 42 -49 41 l-26 -1 25 -7z"/>
        <path d="M2035 1290 c-10 -16 -5 -18 40 -22 30 -2 40 1 40 12 0 18 -70 27 -80 10z"/>
        <path id="detendeur" fill="#f1c232" d="M1820 1235 c-14 -16 -10 -47 6 -52 16 -5 44 25 44 48 0 23 -32 26 -50 4z"/>
        <path d="M2026 1231 c-3 -4 6 -18 19 -31 23 -21 25 -22 31 -5 10 25 -36 59 -50 36z"/>
        <path d="M1868 683 c-50 -13 -13 -75 55 -94 42 -11 102 -5 112 11 29 47 -86 105 -167 83z m123 -26 c11 -7 19 -20 19 -30 0 -10 -4 -15 -10 -12 -5 3 -10 2 -10 -4 0 -11 -34 -8 -73 8 -33 13 -46 39 -26 52 16 11 73 3 100 -14z"/>
        <path d="M1557 517 c-21 -32 -59 -53 -123 -67 -27 -6 -58 -13 -69 -17 -11 -3 -17 -2 -13 2 4 5 -4 14 -18 22 -33 17 -34 17 -34 -5 0 -10 -16 -34 -36 -53 -37 -34 -84 -119 -84 -151 0 -26 19 -32 40 -13 16 14 24 15 53 6 69 -23 186 23 246 96 38 46 63 119 59 170 l-3 37 -18 -27z m-38 -107 c-16 -46 -74 -97 -135 -120 -31 -11 -59 -18 -63 -16 -4 3 -24 6 -44 8 -21 1 -37 7 -37 14 0 6 21 37 47 69 47 57 47 57 91 50 26 -4 42 -3 38 3 -3 5 5 7 17 5 12 -2 33 0 47 6 44 17 50 14 39 -19z"/>
        <!-- POISSON -->
        <!-- <path d="M2544 1489 c-3 -5 -9 -7 -14 -4 -5 3 -17 2 -27 -3 -10 -5 -35 -17 -57 -28 -21 -10 -41 -25 -44 -34 -9 -24 -27 -38 -52 -42 -27 -3 -40 -28 -16 -28 16 0 21 -16 17 -57 -1 -13 3 -23 8 -23 14 0 23 36 16 60 -3 11 -2 20 4 20 5 0 11 -10 13 -22 3 -21 9 -23 61 -25 46 -1 57 2 53 13 -3 7 1 20 9 27 15 16 15 48 0 60 -6 4 -4 11 5 17 13 8 12 10 -2 10 -10 0 -18 7 -18 15 0 16 15 21 23 8 2 -5 3 -3 1 3 -4 16 78 26 88 11 6 -9 11 -8 18 3 8 13 10 12 11 -5 0 -11 3 -15 5 -8 4 8 13 7 34 -5 23 -13 26 -19 17 -31 -10 -12 -9 -12 11 -2 13 7 24 11 25 9 1 -2 8 -13 15 -25 8 -15 8 -23 1 -23 -5 0 -8 -4 -4 -10 3 -5 12 -7 20 -4 10 4 12 0 8 -15 -6 -25 12 -29 21 -5 6 14 -11 44 -35 64 -3 3 -11 15 -18 28 -7 12 -16 20 -22 17 -5 -4 -9 -1 -9 6 0 6 -8 9 -20 6 -13 -3 -20 0 -20 9 0 8 -11 14 -27 15 -16 1 -43 2 -61 4 -18 1 -35 -1 -38 -6z m-54 -78 c14 -28 12 -52 -7 -73 -31 -35 -83 -17 -83 29 0 16 4 21 15 17 8 -4 15 -1 15 5 0 6 -5 11 -11 11 -8 0 -8 5 1 15 18 21 57 19 70 -4z"/>-->
        <!-- <path d="M2813 1904 c-3 -8 -1 -20 6 -27 14 -14 47 15 37 32 -10 16 -36 13 -43 -5z"/>-->
        <!-- <path d="M2786 1807 c-38 -27 2 -95 42 -71 24 16 28 55 6 71 -10 7 -21 13 -24 13 -3 0 -14 -6 -24 -13z m47 -33 c-6 -17 -34 -15 -40 3 -2 6 4 13 14 15 25 6 33 0 26 -18z"/>-->
        <!-- <path d="M2590 1350 c0 -5 1 -10 3 -10 1 0 17 -4 35 -9 30 -9 31 -8 22 10 -11 20 -60 27 -60 9z"/>-->
        <!-- <path d="M2586 1301 c-7 -19 -3 -28 20 -46 31 -25 44 -24 44 4 0 9 7 26 16 37 13 16 15 16 10 2 -3 -12 0 -18 9 -18 19 0 20 26 1 33 -17 7 -46 -23 -46 -46 0 -28 -38 2 -42 33 l-3 25 -9 -24z"/>-->
        <!-- <path d="M2784 1305 c-4 -8 -10 -13 -14 -10 -5 3 -8 -4 -7 -15 1 -19 3 -20 14 -5 6 10 16 14 22 10 17 -10 13 -23 -10 -30 -11 -4 -18 -13 -15 -20 7 -20 -19 -25 -43 -8 -12 8 -25 12 -28 9 -4 -3 -1 -6 5 -6 6 0 18 -13 27 -30 13 -25 13 -30 1 -30 -7 0 -17 -11 -20 -24 -13 -51 -179 -72 -243 -31 -12 9 -23 13 -23 10 0 -3 -9 4 -20 15 -11 11 -20 23 -20 26 0 3 -7 12 -15 20 -8 9 -15 29 -15 45 0 19 -4 28 -11 24 -32 -20 22 -116 85 -150 27 -15 35 -24 31 -40 -5 -20 -5 -20 5 0 10 18 18 20 93 15 l82 -5 59 57 c32 31 55 61 51 67 -3 6 -1 11 4 11 6 0 11 7 11 15 0 21 7 19 42 -11 42 -34 74 -29 70 11 -2 16 -8 35 -13 41 -5 6 -6 14 -3 17 3 3 3 10 -1 16 -4 7 -17 6 -41 -4 -32 -13 -34 -13 -34 6 0 22 -18 26 -26 4z m93 -27 c1 -7 4 -28 8 -45 l7 -33 -30 11 c-31 11 -49 40 -37 60 4 6 13 8 21 5 8 -3 14 -1 14 4 0 15 17 12 17 -2z"/>-->
    </g>
</svg>
